<svg xmlns="http://www.w3.org/2000/svg" version="1.1" xmlns:xlink="http://www.w3.org/1999/xlink" xmlns:svgjs="http://svgjs.dev/svgjs" viewBox="0 0 2400 800" opacity="0.7"><defs><linearGradient x1="50%" y1="0%" x2="50%" y2="100%" id="sssurf-grad"><stop stop-color="hsl(208, 77%, 50%)" stop-opacity="1" offset="0%"></stop><stop stop-color="hsl(208, 74%, 93%)" stop-opacity="1" offset="100%"></stop></linearGradient></defs><g fill="url(#sssurf-grad)" transform="matrix(1,0,0,1,7.6488037109375,270.7640838623047)"><path d="M-10,10C54.58333333333333,13.333333333333332,172.91666666666666,35.583333333333336,300,26C427.08333333333337,16.416666666666664,475,-34.75,600,-36C725,-37.25,775,17.083333333333332,900,20C1025,22.916666666666668,1075,-23.25,1200,-22C1325,-20.75,1375,26,1500,26C1625,26,1675,-26.791666666666668,1800,-22C1925,-17.208333333333332,1975,49.416666666666664,2100,49C2225,48.583333333333336,2285.4166666666665,-97.125,2400,-24C2514.5833333333335,49.125,3254.1666666666665,207.5,2650,400C2045.8333333333335,592.5,156.25,795.8333333333334,-500,900" transform="matrix(1,0,0,1,0,29)" opacity="0.05"></path><path d="M-10,10C54.58333333333333,13.333333333333332,172.91666666666666,35.583333333333336,300,26C427.08333333333337,16.416666666666664,475,-34.75,600,-36C725,-37.25,775,17.083333333333332,900,20C1025,22.916666666666668,1075,-23.25,1200,-22C1325,-20.75,1375,26,1500,26C1625,26,1675,-26.791666666666668,1800,-22C1925,-17.208333333333332,1975,49.416666666666664,2100,49C2225,48.583333333333336,2285.4166666666665,-97.125,2400,-24C2514.5833333333335,49.125,3254.1666666666665,207.5,2650,400C2045.8333333333335,592.5,156.25,795.8333333333334,-500,900" transform="matrix(1,0,0,1,0,58)" opacity="0.24"></path><path d="M-10,10C54.58333333333333,13.333333333333332,172.91666666666666,35.583333333333336,300,26C427.08333333333337,16.416666666666664,475,-34.75,600,-36C725,-37.25,775,17.083333333333332,900,20C1025,22.916666666666668,1075,-23.25,1200,-22C1325,-20.75,1375,26,1500,26C1625,26,1675,-26.791666666666668,1800,-22C1925,-17.208333333333332,1975,49.416666666666664,2100,49C2225,48.583333333333336,2285.4166666666665,-97.125,2400,-24C2514.5833333333335,49.125,3254.1666666666665,207.5,2650,400C2045.8333333333335,592.5,156.25,795.8333333333334,-500,900" transform="matrix(1,0,0,1,0,87)" opacity="0.43"></path><path d="M-10,10C54.58333333333333,13.333333333333332,172.91666666666666,35.583333333333336,300,26C427.08333333333337,16.416666666666664,475,-34.75,600,-36C725,-37.25,775,17.083333333333332,900,20C1025,22.916666666666668,1075,-23.25,1200,-22C1325,-20.75,1375,26,1500,26C1625,26,1675,-26.791666666666668,1800,-22C1925,-17.208333333333332,1975,49.416666666666664,2100,49C2225,48.583333333333336,2285.4166666666665,-97.125,2400,-24C2514.5833333333335,49.125,3254.1666666666665,207.5,2650,400C2045.8333333333335,592.5,156.25,795.8333333333334,-500,900" transform="matrix(1,0,0,1,0,116)" opacity="0.62"></path><path d="M-10,10C54.58333333333333,13.333333333333332,172.91666666666666,35.583333333333336,300,26C427.08333333333337,16.416666666666664,475,-34.75,600,-36C725,-37.25,775,17.083333333333332,900,20C1025,22.916666666666668,1075,-23.25,1200,-22C1325,-20.75,1375,26,1500,26C1625,26,1675,-26.791666666666668,1800,-22C1925,-17.208333333333332,1975,49.416666666666664,2100,49C2225,48.583333333333336,2285.4166666666665,-97.125,2400,-24C2514.5833333333335,49.125,3254.1666666666665,207.5,2650,400C2045.8333333333335,592.5,156.25,795.8333333333334,-500,900" transform="matrix(1,0,0,1,0,145)" opacity="0.81"></path><path d="M-10,10C54.58333333333333,13.333333333333332,172.91666666666666,35.583333333333336,300,26C427.08333333333337,16.416666666666664,475,-34.75,600,-36C725,-37.25,775,17.083333333333332,900,20C1025,22.916666666666668,1075,-23.25,1200,-22C1325,-20.75,1375,26,1500,26C1625,26,1675,-26.791666666666668,1800,-22C1925,-17.208333333333332,1975,49.416666666666664,2100,49C2225,48.583333333333336,2285.4166666666665,-97.125,2400,-24C2514.5833333333335,49.125,3254.1666666666665,207.5,2650,400C2045.8333333333335,592.5,156.25,795.8333333333334,-500,900" transform="matrix(1,0,0,1,0,174)" opacity="1.00"></path></g></svg>