<svg width="60.958687" height="24.041700" viewBox="0 0 60.9587 24.0417" fill="currentColor" xmlns="http://www.w3.org/2000/svg" xmlns:xlink="http://www.w3.org/1999/xlink">
	<desc>
			Created with Pixso.
	</desc>
	<defs/>
	<path id="矢量 2" d="M13.829 4.17107C15.1624 5.50455 15.8291 7.11419 15.8291 9.00002L18 9.00002C18 6.51473 17.1213 4.3934 15.364 2.63604C13.6067 0.878679 11.4853 0 9.00002 0C6.51473 0 4.3934 0.878679 2.63604 2.63604C0.878679 4.3934 0 6.51473 0 9.00002C0 11.4853 0.878679 13.6067 2.63604 15.364C4.3934 17.1213 6.51473 18 9.00002 18L9.00002 15.8291C7.1142 15.8291 5.50455 15.1624 4.17107 13.829C2.83759 12.4955 2.17086 10.8858 2.17086 9.00002C2.17086 7.11419 2.83759 5.50455 4.17107 4.17107C5.50455 2.83759 7.1142 2.17086 9.00002 2.17086C10.8858 2.17086 12.4955 2.83759 13.829 4.17107Z" fill-rule="evenodd" />
	<path id="矢量 2" d="M10.2589 7.74111C10.6065 8.08874 10.7803 8.50838 10.7803 9.00001L13 9.00001C13 7.89543 12.6095 6.95262 11.8284 6.17157C11.0474 5.39052 10.1046 5 9.00001 5C7.89543 5 6.95262 5.39052 6.17157 6.17157C5.39052 6.95262 5 7.89543 5 9.00001C5 10.1046 5.39052 11.0474 6.17157 11.8284C6.95262 12.6095 7.89543 13 9.00001 13L9.00001 10.7803C8.50838 10.7803 8.08874 10.6065 7.74111 10.2589C7.39347 9.91127 7.21965 9.49164 7.21965 9.00001C7.21965 8.50838 7.39347 8.08874 7.74111 7.74111C8.08874 7.39347 8.50838 7.21965 9.00001 7.21965C9.49164 7.21965 9.91127 7.39347 10.2589 7.74111Z" fill-rule="evenodd" fill="#E30000"/>
	<path id="矢量 2" d="M8.5 23.0417L8.5 9.5C8.5 9.43434 8.5064 9.36931 8.51921 9.30491C8.53203 9.24051 8.55099 9.17798 8.57612 9.11732C8.60125 9.05665 8.63205 8.99903 8.66853 8.94443C8.70501 8.88984 8.74646 8.83932 8.79289 8.79289C8.83932 8.74646 8.88984 8.70501 8.94443 8.66853C8.99903 8.63205 9.05665 8.60125 9.11732 8.57612C9.17798 8.55099 9.24051 8.53203 9.30491 8.51921C9.36931 8.5064 9.43434 8.5 9.5 8.5L23.0417 8.5C23.1074 8.5 23.1724 8.5064 23.2368 8.51921C23.3012 8.53203 23.3637 8.55099 23.4243 8.57612C23.485 8.60125 23.5426 8.63205 23.5972 8.66853C23.6518 8.70501 23.7023 8.74646 23.7488 8.79289C23.7952 8.83932 23.8366 8.88984 23.8731 8.94443C23.9096 8.99903 23.9404 9.05665 23.9655 9.11732C23.9906 9.17798 24.0096 9.24051 24.0225 9.30491C24.0353 9.36931 24.0417 9.43434 24.0417 9.5L24.0417 23.0417C24.0417 23.1074 24.0353 23.1724 24.0225 23.2368C24.0096 23.3012 23.9906 23.3637 23.9655 23.4243C23.9404 23.485 23.9096 23.5426 23.8731 23.5972C23.8366 23.6518 23.7952 23.7023 23.7488 23.7488C23.7023 23.7952 23.6518 23.8366 23.5972 23.8731C23.5426 23.9096 23.485 23.9404 23.4243 23.9655C23.3637 23.9906 23.3012 24.0096 23.2368 24.0225C23.1724 24.0353 23.1074 24.0417 23.0417 24.0417L9.5 24.0417C9.43434 24.0417 9.36931 24.0353 9.30491 24.0225C9.24051 24.0096 9.17798 23.9906 9.11732 23.9655C9.05665 23.9404 8.99903 23.9096 8.94443 23.8731C8.88984 23.8366 8.83932 23.7952 8.79289 23.7488C8.74646 23.7023 8.70501 23.6518 8.66853 23.5972C8.63205 23.5426 8.60125 23.485 8.57612 23.4243C8.55099 23.3637 8.53203 23.3012 8.51921 23.2368C8.5064 23.1724 8.5 23.1074 8.5 23.0417ZM22.0417 10.5L10.5 10.5L10.5 22.0417L22.0417 22.0417L22.0417 10.5Z" fill-rule="evenodd" />
	<path id="矢量 2" d="M30.4552 17.5977C29.9552 17.5977 29.4695 17.5729 28.9981 17.5234C28.5294 17.4766 28.1036 17.4102 27.7208 17.3242L27.7208 15.3867C28.1374 15.5143 28.5775 15.6133 29.0411 15.6836C29.5046 15.7539 29.933 15.7891 30.3262 15.7891C30.8289 15.7891 31.1947 15.7305 31.4239 15.6133C31.6531 15.4961 31.7677 15.2669 31.7677 14.9258C31.7677 14.7539 31.7455 14.6094 31.7012 14.4922C31.6596 14.375 31.5775 14.2734 31.4552 14.1875C31.3328 14.1016 31.1648 14.0247 30.9512 13.957C30.7377 13.8867 30.4552 13.8086 30.1036 13.7227C29.6453 13.6159 29.2664 13.4961 28.9669 13.3633C28.67 13.2305 28.4356 13.0716 28.2637 12.8867C28.0945 12.6992 27.9773 12.4753 27.9122 12.2148C27.8471 11.9518 27.8145 11.6393 27.8145 11.2773C27.8145 10.8711 27.8757 10.5078 27.9981 10.1875C28.1231 9.86719 28.3236 9.59765 28.5997 9.3789C28.8783 9.16015 29.2351 8.99219 29.67 8.875C30.1075 8.75781 30.6414 8.69922 31.2716 8.69922C31.7507 8.69922 32.2065 8.72656 32.6387 8.78125C33.071 8.83333 33.4044 8.90234 33.6387 8.98828L33.545 10.7656C33.4278 10.7318 33.2833 10.6966 33.1114 10.6602C32.9421 10.6237 32.7585 10.5898 32.5606 10.5586C32.3627 10.5247 32.1596 10.4974 31.9512 10.4766C31.7429 10.4557 31.5437 10.4453 31.3536 10.4453C30.8197 10.4453 30.4591 10.5039 30.2716 10.6211C30.0841 10.7383 29.9903 10.9453 29.9903 11.2422C29.9903 11.3828 30.0085 11.4961 30.045 11.582C30.0841 11.6654 30.1622 11.7396 30.2794 11.8047C30.3966 11.8672 30.5593 11.931 30.7677 11.9961C30.976 12.0612 31.2507 12.1354 31.5919 12.2187C32.0606 12.3359 32.4499 12.4674 32.7598 12.6133C33.0697 12.7565 33.3145 12.9271 33.4942 13.125C33.6765 13.3229 33.8015 13.5638 33.8692 13.8477C33.9395 14.1289 33.9747 14.4661 33.9747 14.8594C33.9747 15.3724 33.894 15.8021 33.7325 16.1484C33.5736 16.4948 33.3445 16.7747 33.045 16.9883C32.7481 17.2018 32.3809 17.3568 31.9434 17.4531C31.5059 17.5495 31.0098 17.5977 30.4552 17.5977Z" fill-rule="nonzero" />
	<path id="矢量 2" d="M39.8577 8.69922C40.5608 8.69922 41.1337 8.80338 41.5764 9.01172C42.0191 9.22005 42.3681 9.51953 42.6233 9.91015C42.8785 10.2982 43.0543 10.7695 43.1506 11.3242C43.247 11.8789 43.2952 12.4974 43.2952 13.1797C43.2952 13.7995 43.247 14.3815 43.1506 14.9258C43.0543 15.4674 42.8785 15.9414 42.6233 16.3477C42.3681 16.7539 42.0191 17.0742 41.5764 17.3086C41.1337 17.543 40.5608 17.6602 39.8577 17.6602C39.066 17.6602 38.4748 17.5456 38.0842 17.3164C37.6962 17.0872 37.4175 16.7799 37.2483 16.3945L37.2483 20.6992L34.928 20.6992L34.928 8.85937L37.2483 8.85937L37.2483 9.89844C37.4175 9.58072 37.7053 9.30208 38.1116 9.0625C38.5178 8.82031 39.0998 8.69922 39.8577 8.69922ZM39.1194 15.8984C39.5152 15.8984 39.8329 15.8268 40.0725 15.6836C40.3121 15.5404 40.4957 15.3463 40.6233 15.1016C40.7509 14.8542 40.8329 14.5651 40.8694 14.2344C40.9084 13.9036 40.928 13.5521 40.928 13.1797C40.928 12.7865 40.9058 12.4219 40.8616 12.0859C40.8199 11.7474 40.7353 11.4557 40.6077 11.2109C40.48 10.9661 40.2991 10.7747 40.0647 10.6367C39.8303 10.4987 39.5152 10.4297 39.1194 10.4297C38.7261 10.4297 38.4006 10.4909 38.1428 10.6133C37.8876 10.7357 37.6819 10.9141 37.5256 11.1484C37.372 11.3828 37.2652 11.6706 37.2053 12.0117C37.148 12.3529 37.1194 12.7422 37.1194 13.1797C37.1194 13.5963 37.148 13.9727 37.2053 14.3086C37.2652 14.6445 37.372 14.9297 37.5256 15.1641C37.6819 15.3984 37.8876 15.5794 38.1428 15.707C38.4006 15.8346 38.7261 15.8984 39.1194 15.8984Z" fill-rule="nonzero" />
	<path id="矢量 2" d="M47.8012 8.71484C48.5251 8.71484 49.1345 8.77734 49.6293 8.90234C50.1267 9.02473 50.5277 9.20312 50.8324 9.4375C51.1371 9.67187 51.3558 9.96223 51.4887 10.3086C51.6215 10.6549 51.6879 11.0573 51.6879 11.5156L51.6879 17.5L49.6097 17.5L49.3832 16.4922C49.2035 16.8125 48.878 17.0872 48.4066 17.3164C47.9379 17.5456 47.3467 17.6602 46.6332 17.6602C45.6618 17.6602 44.9249 17.444 44.4222 17.0117C43.9222 16.5794 43.6722 15.9154 43.6722 15.0195C43.6722 14.0169 43.973 13.3138 44.5746 12.9102C45.1788 12.5039 46.0616 12.3008 47.223 12.3008L49.3676 12.3008L49.3676 12.0742C49.3676 11.819 49.3428 11.6016 49.2933 11.4219C49.2465 11.2396 49.154 11.0924 49.016 10.9805C48.878 10.8685 48.6918 10.7865 48.4574 10.7344C48.223 10.6797 47.9131 10.6523 47.5277 10.6523C47.2178 10.6523 46.9079 10.6654 46.598 10.6914C46.2907 10.7174 45.9874 10.7578 45.6879 10.8125L45.6879 8.84375C46.0186 8.80208 46.3754 8.77083 46.7582 8.75C47.1436 8.72656 47.4913 8.71484 47.8012 8.71484ZM47.223 15.8828C47.7569 15.8828 48.21 15.7904 48.5824 15.6055C48.9574 15.418 49.2191 15.1745 49.3676 14.875L49.3676 13.8672L47.5746 13.8672C46.9991 13.8672 46.5863 13.9375 46.3363 14.0781C46.0863 14.2161 45.9613 14.5039 45.9613 14.9414C45.9613 15.2825 46.059 15.5247 46.2543 15.668C46.4522 15.8112 46.7751 15.8828 47.223 15.8828Z" fill-rule="nonzero" />
	<path id="矢量 2" d="M58.0954 8.69922C58.6293 8.69922 59.0798 8.76041 59.447 8.88281C59.8168 9.0052 60.1136 9.1901 60.3376 9.4375C60.5616 9.68229 60.7204 9.98307 60.8142 10.3398C60.9105 10.6966 60.9587 11.1159 60.9587 11.5977L60.9587 17.5L58.6384 17.5L58.6384 12.2031C58.6384 11.9167 58.6175 11.6693 58.5759 11.4609C58.5342 11.2526 58.4626 11.0846 58.361 10.957C58.2595 10.8294 58.1175 10.737 57.9352 10.6797C57.7556 10.6198 57.5212 10.5898 57.2321 10.5898C56.753 10.5898 56.3584 10.6758 56.0485 10.8477C55.7386 11.0169 55.5199 11.3255 55.3923 11.7734L55.3923 17.5L53.072 17.5L53.072 8.85937L55.3923 8.85937L55.3923 9.89844C55.6267 9.49479 55.9782 9.19401 56.447 8.99609C56.9157 8.79817 57.4652 8.69922 58.0954 8.69922Z" fill-rule="nonzero" />
</svg>
