<svg width="24.041702" height="24.041702" viewBox="0 0 24.0417 24.0417" fill="currentColor" xmlns="http://www.w3.org/2000/svg" xmlns:xlink="http://www.w3.org/1999/xlink">
	<path d="M13.829 4.17107C15.1624 5.50455 15.8291 7.1142 15.8291 9.00002L18 9.00002C18 6.51473 17.1213 4.3934 15.364 2.63604C13.6067 0.87868 11.4853 0 9.00002 0C6.51473 0 4.3934 0.87868 2.63604 2.63604C0.878679 4.3934 0 6.51473 0 9.00002C0 11.4853 0.878679 13.6067 2.63604 15.364C4.3934 17.1213 6.51473 18 9.00002 18L9.00002 15.8291C7.1142 15.8291 5.50455 15.1624 4.17107 13.829C2.83759 12.4955 2.17086 10.8858 2.17086 9.00002C2.17086 7.1142 2.83759 5.50455 4.17107 4.17107C5.50455 2.83759 7.1142 2.17086 9.00002 2.17086C10.8858 2.17086 12.4955 2.83759 13.829 4.17107Z" fill-rule="evenodd" fill=""/>
	<path d="M10.2589 7.74111C10.6065 8.08874 10.7803 8.50838 10.7803 9.00001L13 9.00001C13 7.89543 12.6095 6.95262 11.8284 6.17157C11.0474 5.39052 10.1046 5 9.00001 5C7.89543 5 6.95262 5.39052 6.17157 6.17157C5.39052 6.95262 5 7.89543 5 9.00001C5 10.1046 5.39052 11.0474 6.17157 11.8284C6.95262 12.6095 7.89543 13 9.00001 13L9.00001 10.7803C8.50838 10.7803 8.08874 10.6065 7.74111 10.2589C7.39347 9.91127 7.21965 9.49164 7.21965 9.00001C7.21965 8.50838 7.39347 8.08874 7.74111 7.74111C8.08874 7.39347 8.50838 7.21965 9.00001 7.21965C9.49164 7.21965 9.91127 7.39347 10.2589 7.74111Z" fill-rule="evenodd" fill="#E30000"/>
	<path d="M8.5 23.0417L8.5 9.5C8.5 9.43434 8.5064 9.36931 8.51921 9.30491C8.53203 9.24051 8.55099 9.17798 8.57612 9.11732C8.60125 9.05665 8.63205 8.99903 8.66853 8.94443C8.70501 8.88984 8.74646 8.83932 8.79289 8.79289C8.83932 8.74646 8.88984 8.70501 8.94443 8.66853C8.99903 8.63205 9.05665 8.60125 9.11732 8.57612C9.17798 8.55099 9.24051 8.53203 9.30491 8.51921C9.36931 8.5064 9.43434 8.5 9.5 8.5L23.0417 8.5C23.1074 8.5 23.1724 8.5064 23.2368 8.51921C23.3012 8.53203 23.3637 8.55099 23.4243 8.57612C23.485 8.60125 23.5426 8.63205 23.5972 8.66853C23.6518 8.70501 23.7023 8.74646 23.7488 8.79289C23.7952 8.83932 23.8366 8.88984 23.8731 8.94443C23.9096 8.99903 23.9404 9.05665 23.9655 9.11732C23.9906 9.17798 24.0096 9.24051 24.0225 9.30491C24.0353 9.36931 24.0417 9.43434 24.0417 9.5L24.0417 23.0417C24.0417 23.1074 24.0353 23.1724 24.0225 23.2368C24.0096 23.3012 23.9906 23.3637 23.9655 23.4243C23.9404 23.485 23.9096 23.5426 23.8731 23.5972C23.8366 23.6518 23.7952 23.7023 23.7488 23.7488C23.7023 23.7952 23.6518 23.8366 23.5972 23.8731C23.5426 23.9096 23.485 23.9404 23.4243 23.9655C23.3637 23.9906 23.3012 24.0096 23.2368 24.0225C23.1724 24.0353 23.1074 24.0417 23.0417 24.0417L9.5 24.0417C9.43434 24.0417 9.36931 24.0353 9.30491 24.0225C9.24051 24.0096 9.17798 23.9906 9.11732 23.9655C9.05665 23.9404 8.99903 23.9096 8.94443 23.8731C8.88984 23.8366 8.83932 23.7952 8.79289 23.7488C8.74646 23.7023 8.70501 23.6518 8.66853 23.5972C8.63205 23.5426 8.60125 23.485 8.57612 23.4243C8.55099 23.3637 8.53203 23.3012 8.51921 23.2368C8.5064 23.1724 8.5 23.1074 8.5 23.0417ZM22.0417 10.5L10.5 10.5L10.5 22.0417L22.0417 22.0417L22.0417 10.5Z" fill-rule="evenodd" fill=""/>
	<style>
        svg { fill: 'currentColor'; }
        @media (prefers-color-scheme: dark) {
            svg { fill: #FFF; }
        }
    </style>
</svg>
